# xmcd CD database file
#
# Track frame offsets:
#	150
#	23653
#	48465
#	83775
#	101433
#	138040
#	174073
#	230050
#	259668
#	302618
#
# Disc length: 4425 seconds
#
# Revision: 12
# Processed by: cddbd v1.5.2PL0 Copyright (c) Steve Scherf et al.
# Submitted via: CDex 1.51
#
DISCID=6e11470a
DTITLE=John Mayall and The Bluesbreakers And Friends - 70th Birthday Concert (Disc-1)
DYEAR=2003
DGENRE=Blues
TTITLE0=Grits Ain't Groceries - The Bluesbreakers
TTITLE1=Jacksboro Highway - The Bluesbreakers
TTITLE2=Southside Story - John Mayall and The Bluesbreakers
TTITLE3=Kids Got The Blues - John Mayall and The Bluesbreakers
TTITLE4=Dirty Water - John Mayall and The Bluesbreakers
TTITLE5=Somebody's Acting Like A Child - John Mayall and The Bluesbreakers with Mick Taylor
TTITLE6=Blues For The Lost Days - John Mayall and The Bluesbreakers with Mick Taylor
TTITLE7=Walking On Sunset - John Mayall and The Bluesbreakers with Mick Taylor
TTITLE8=Oh, Pretty Woman - John Mayall and The Bluesbreakers with Mick Taylor
TTITLE9=No Big Hurry - John Mayall and Eric Clapton
EXTD=YEAR: 2003
EXTT0=
EXTT1=
EXTT2=
EXTT3=
EXTT4=
EXTT5=
EXTT6=
EXTT7=
EXTT8=
EXTT9=
PLAYORDER=
